<svg width="61" height="61" viewBox="0 0 61 61" fill="none" xmlns="http://www.w3.org/2000/svg">
<path opacity="0.35" fill-rule="evenodd" clip-rule="evenodd" d="M12.9794 49.7626C9.53488 41.9987 10.7934 31.0587 15.1493 21.599C19.5052 12.1393 38.4455 12.8052 42.6303 12.1393C46.815 11.4734 53.3238 13.1904 55.8223 17.3947C58.3208 21.599 63.4483 37.1699 59.6353 45.6355C55.8223 54.1011 34.9942 61.6623 31.4734 60.6218C27.9526 59.5812 16.424 57.5264 12.9794 49.7626Z" fill="#FFF7D8"/>
<path d="M22.5856 43.0608C34.1694 43.0608 43.5599 33.6703 43.5599 22.0866C43.5599 10.5028 34.1694 1.1123 22.5856 1.1123C11.0018 1.1123 1.61133 10.5028 1.61133 22.0866C1.61133 33.6703 11.0018 43.0608 22.5856 43.0608Z" stroke="#56C2E9" stroke-width="1.99755" stroke-miterlimit="10" stroke-linecap="round"/>
<path d="M6.81494 15.7943C8.68265 11.1001 12.5978 7.4346 17.4519 5.89648" stroke="#56C2E9" stroke-width="1.99755" stroke-miterlimit="10" stroke-linecap="round"/>
<path d="M5.60645 22.0864C5.60645 21.1775 5.67636 20.2986 5.81619 19.4297" stroke="#56C2E9" stroke-width="1.99755" stroke-miterlimit="10" stroke-linecap="round"/>
<path d="M38.3763 43.0804L52.0795 56.7836C52.8585 57.5626 54.127 57.5626 54.906 56.7836L56.2943 55.3953C57.0733 54.6162 57.0733 53.3478 56.2943 52.5687L42.5911 38.8655C41.8121 38.0865 40.5436 38.0865 39.7646 38.8655L38.3763 40.2538C37.5972 41.0329 37.5972 42.3013 38.3763 43.0804Z" stroke="#56C2E9" stroke-width="1.99755" stroke-miterlimit="10" stroke-linecap="round" stroke-linejoin="round"/>
<path d="M39.0651 39.5656L36.9077 37.4082" stroke="#56C2E9" stroke-width="1.99755" stroke-miterlimit="10" stroke-linecap="round"/>
</svg>
