<svg xmlns="http://www.w3.org/2000/svg" viewBox="0 0 114.87 41.73"><defs><style>.cls-1{font-size:36px;font-family:TsukuARdGothic-Bold-83pv-RKSJ-H, Tsukushi A Round Gothic;}.cls-1,.cls-2{fill:#264289;}</style></defs><g id="レイヤー_2" data-name="レイヤー 2"><g id="レイヤー_1-2" data-name="レイヤー 1"><text class="cls-1" transform="translate(37.65 31.68)">Silva</text><path class="cls-2" d="M5.6,9.67l4.21,4.52c.56-2.83-1.07-5.32-.82-8.1,4.42,2.24,3.5-2.84,5.59-3.82,2,1,1.2,6,5.56,3.8.2,2.76-1.22,5.27-1,8,1.28-.1,1.56-1.07,2.23-1.51.91-.61,1.45-3.13,3.07-.44.48.81,2.06,0,3.12-.23s1.34,0,1.15,1.15c-.23,1.51-2.18,3.26.47,4.57.33.17-.4.81-.77,1.11C27,19.86,25.57,21.09,24,22.14s-2.45,2.08-1.29,4.2c-2.23-.22-4.16-.34-6.06-.61-1.25-.17-1.7.17-1.55,1.46.18,1.59.26,3.2.36,4.8,0,.65.23,1.41-.85,1.46-1.26.07-1.06-.79-1-1.53.1-1.6.19-3.21.36-4.81.12-1.11-.22-1.57-1.39-1.38s-2.19.26-3.28.33c-1.27.08-3.3,1.18-2.4-1.79.22-.73-.6-1.12-1.13-1.54-1.32-1-2.73-2-4-3.16-.81-.76-3.26-1.24-.71-3,.68-.48-.15-1.77-.45-2.61C0,12.07.29,11.38,2.38,12.06,3.82,12.53,5.29,12.76,5.6,9.67Z"/></g></g></svg>