<svg width="250" height="83" viewBox="0 0 250 83" fill="none" xmlns="http://www.w3.org/2000/svg">
<path d="M4.57031 49.3008L14.6602 48.7734C14.8008 51.9844 15.3516 54.1523 16.3125 55.2773C17.8594 57.1055 20.7188 58.0195 24.8906 58.0195C28.3594 58.0195 30.8672 57.3984 32.4141 56.1562C33.9609 54.9141 34.7344 53.4141 34.7344 51.6562C34.7344 50.1328 34.1016 48.8438 32.8359 47.7891C31.9453 47.0156 29.4961 45.7617 25.4883 44.0273C21.5039 42.293 18.5859 40.8516 16.7344 39.7031C14.9062 38.5312 13.4648 37.0195 12.4102 35.168C11.3555 33.3164 10.8281 31.1484 10.8281 28.6641C10.8281 24.3281 12.3984 20.7305 15.5391 17.8711C18.6797 15.0117 23.2266 13.582 29.1797 13.582C35.2266 13.582 39.9023 15 43.207 17.8359C46.5352 20.6719 48.3633 24.4453 48.6914 29.1562L38.5312 29.6133C38.2734 27.1523 37.3828 25.2656 35.8594 23.9531C34.3359 22.6406 32.0859 21.9844 29.1094 21.9844C26.1797 21.9844 24.082 22.5 22.8164 23.5312C21.5742 24.5625 20.9531 25.8633 20.9531 27.4336C20.9531 28.9102 21.5273 30.1289 22.6758 31.0898C23.8242 32.0742 26.3672 33.4219 30.3047 35.1328C36.2344 37.6875 40.0078 39.7617 41.625 41.3555C44.0391 43.6992 45.2461 46.7109 45.2461 50.3906C45.2461 54.9375 43.4414 58.8281 39.832 62.0625C36.2461 65.2734 31.2422 66.8789 24.8203 66.8789C20.3906 66.8789 16.5469 66.1406 13.2891 64.6641C10.0547 63.1641 7.76953 61.0898 6.43359 58.4414C5.09766 55.793 4.47656 52.7461 4.57031 49.3008ZM61.6641 14.4609H71.7539L69.8555 23.6016H59.7656L61.6641 14.4609ZM58.7109 28.6641H68.8008L60.9961 66H50.9062L58.7109 28.6641ZM70.875 66L81.668 14.4609H91.7227L80.9648 66H70.875ZM109.652 66H100.969L93.4805 28.6641H103.395L106.031 44.9414C106.758 49.3477 107.191 52.2773 107.332 53.7305C107.52 53.332 108.328 51.8203 109.758 49.1953C111.211 46.5469 112.102 44.9531 112.43 44.4141L121.711 28.6641H132.609L109.652 66ZM145.301 39.2461L135.457 38.4023C136.582 35.0742 138.539 32.4727 141.328 30.5977C144.141 28.7227 147.855 27.7852 152.473 27.7852C157.277 27.7852 160.828 28.7578 163.125 30.7031C165.422 32.625 166.57 34.9805 166.57 37.7695C166.57 38.8945 166.465 40.0898 166.254 41.3555C166.066 42.6211 165.375 45.9492 164.18 51.3398C163.195 55.793 162.703 58.9102 162.703 60.6914C162.703 62.2852 162.984 64.0547 163.547 66H153.738C153.34 64.6406 153.094 63.2344 153 61.7812C151.523 63.4219 149.824 64.6875 147.902 65.5781C145.98 66.4453 144.047 66.8789 142.102 66.8789C139.008 66.8789 136.453 65.8711 134.438 63.8555C132.422 61.8164 131.414 59.2031 131.414 56.0156C131.414 52.4531 132.516 49.6055 134.719 47.4727C136.945 45.3398 140.906 44.0508 146.602 43.6055C151.406 43.207 154.617 42.7266 156.234 42.1641C156.656 40.7578 156.867 39.6328 156.867 38.7891C156.867 37.7109 156.434 36.8086 155.566 36.082C154.699 35.3555 153.41 34.9922 151.699 34.9922C149.895 34.9922 148.465 35.3672 147.41 36.1172C146.379 36.8438 145.676 37.8867 145.301 39.2461ZM154.898 48.5977C154.289 48.7617 153.48 48.9141 152.473 49.0547C147.41 49.6641 144.105 50.5547 142.559 51.7266C141.457 52.5703 140.906 53.707 140.906 55.1367C140.906 56.3086 141.328 57.3047 142.172 58.125C143.016 58.9219 144.129 59.3203 145.512 59.3203C147.035 59.3203 148.465 58.957 149.801 58.2305C151.16 57.4805 152.168 56.5312 152.824 55.3828C153.504 54.2109 154.102 52.3945 154.617 49.9336L154.898 48.5977Z" fill="#1A5098"/>
<path d="M176.301 66L181.68 40.2305H186.742L184.932 48.8438C185.857 48.1406 186.719 47.6426 187.516 47.3496C188.324 47.0449 189.203 46.8926 190.152 46.8926C192.121 46.8926 193.697 47.5547 194.881 48.8789C196.064 50.1914 196.656 52.1074 196.656 54.627C196.656 56.3262 196.375 57.9785 195.812 59.584C195.262 61.1777 194.518 62.4785 193.58 63.4863C192.654 64.4824 191.676 65.2266 190.645 65.7188C189.625 66.1992 188.553 66.4395 187.428 66.4395C184.756 66.4395 182.793 65.2676 181.539 62.9238L180.889 66H176.301ZM183.104 58.3887C183.104 59.6426 183.455 60.6621 184.158 61.4473C184.873 62.2324 185.711 62.625 186.672 62.625C187.516 62.625 188.318 62.3203 189.08 61.7109C189.854 61.1016 190.492 60.1289 190.996 58.793C191.512 57.457 191.77 56.1094 191.77 54.75C191.77 53.4258 191.424 52.3887 190.732 51.6387C190.053 50.877 189.227 50.4961 188.254 50.4961C186.988 50.4961 185.898 51.082 184.984 52.2539C183.73 53.8594 183.104 55.9043 183.104 58.3887ZM216.625 58.2305H203.969C203.957 58.4297 203.951 58.582 203.951 58.6875C203.951 59.9297 204.303 60.9316 205.006 61.6934C205.721 62.4551 206.588 62.8359 207.607 62.8359C209.283 62.8359 210.59 61.9688 211.527 60.2344L216.045 60.9902C215.166 62.8066 213.988 64.1719 212.512 65.0859C211.047 65.9883 209.4 66.4395 207.572 66.4395C205.064 66.4395 203.025 65.6484 201.455 64.0664C199.885 62.4727 199.1 60.3691 199.1 57.7559C199.1 55.2012 199.809 52.9277 201.227 50.9355C203.16 48.2402 205.92 46.8926 209.506 46.8926C211.791 46.8926 213.607 47.6016 214.955 49.0195C216.303 50.4258 216.977 52.4004 216.977 54.9434C216.977 56.1621 216.859 57.2578 216.625 58.2305ZM212.371 55.1543C212.383 54.9316 212.389 54.7617 212.389 54.6445C212.389 53.2617 212.078 52.2246 211.457 51.5332C210.836 50.8418 210.004 50.4961 208.961 50.4961C207.918 50.4961 206.98 50.8887 206.148 51.6738C205.328 52.459 204.771 53.6191 204.479 55.1543H212.371ZM219.754 51.0762L220.527 47.332H222.988L223.604 44.3438L229.387 40.8633L228.033 47.332H231.109L230.336 51.0762H227.242L225.607 58.8984C225.314 60.3164 225.168 61.125 225.168 61.3242C225.168 61.7109 225.291 62.0156 225.537 62.2383C225.783 62.4492 226.229 62.5547 226.873 62.5547C227.096 62.5547 227.652 62.5137 228.543 62.4316L227.752 66.1758C226.885 66.3516 225.994 66.4395 225.08 66.4395C223.299 66.4395 222.004 66.0996 221.195 65.4199C220.387 64.7285 219.982 63.7734 219.982 62.5547C219.982 61.9805 220.199 60.6562 220.633 58.582L222.197 51.0762H219.754ZM237.596 52.623L232.674 52.2012C233.236 50.5371 234.215 49.2363 235.609 48.2988C237.016 47.3613 238.873 46.8926 241.182 46.8926C243.584 46.8926 245.359 47.3789 246.508 48.3516C247.656 49.3125 248.23 50.4902 248.23 51.8848C248.23 52.4473 248.178 53.0449 248.072 53.6777C247.979 54.3105 247.633 55.9746 247.035 58.6699C246.543 60.8965 246.297 62.4551 246.297 63.3457C246.297 64.1426 246.438 65.0273 246.719 66H241.814C241.615 65.3203 241.492 64.6172 241.445 63.8906C240.707 64.7109 239.857 65.3438 238.896 65.7891C237.936 66.2227 236.969 66.4395 235.996 66.4395C234.449 66.4395 233.172 65.9355 232.164 64.9277C231.156 63.9082 230.652 62.6016 230.652 61.0078C230.652 59.2266 231.203 57.8027 232.305 56.7363C233.418 55.6699 235.398 55.0254 238.246 54.8027C240.648 54.6035 242.254 54.3633 243.062 54.082C243.273 53.3789 243.379 52.8164 243.379 52.3945C243.379 51.8555 243.162 51.4043 242.729 51.041C242.295 50.6777 241.65 50.4961 240.795 50.4961C239.893 50.4961 239.178 50.6836 238.65 51.0586C238.135 51.4219 237.783 51.9434 237.596 52.623ZM242.395 57.2988C242.09 57.3809 241.686 57.457 241.182 57.5273C238.65 57.832 236.998 58.2773 236.225 58.8633C235.674 59.2852 235.398 59.8535 235.398 60.5684C235.398 61.1543 235.609 61.6523 236.031 62.0625C236.453 62.4609 237.01 62.6602 237.701 62.6602C238.463 62.6602 239.178 62.4785 239.846 62.1152C240.525 61.7402 241.029 61.2656 241.357 60.6914C241.697 60.1055 241.996 59.1973 242.254 57.9668L242.395 57.2988Z" fill="#545454"/>
</svg>
