<svg xmlns="http://www.w3.org/2000/svg" viewBox="0 0 114.22 31.19"><defs><style>.cls-1{fill:#264289;}</style></defs><g id="レイヤー_2" data-name="レイヤー 2"><g id="レイヤー_1-2" data-name="レイヤー 1"><path class="cls-1" d="M47.77,30.06c-5.87,0-8.89-3.35-8.89-5.11A2.1,2.1,0,0,1,41,22.9a2,2,0,0,1,1.59.9,6.18,6.18,0,0,0,5.25,2.41c4,0,4.83-2.7,4.83-3.85a4.75,4.75,0,0,0-2.74-4c-1.58-.9-3.53-2-5.43-2.85-3.17-1.44-4.61-4-4.61-6.48,0-3.49,2.81-6.84,7.77-6.84s7.81,2.38,7.81,4.07a2.1,2.1,0,0,1-2,2.09,2.28,2.28,0,0,1-1.69-.86A5.25,5.25,0,0,0,47.59,5.8c-2.31,0-3.71,1.44-3.71,3.06A3.7,3.7,0,0,0,46.15,12c1.47.79,4,1.94,5.61,2.84,3.6,2,5.11,4.72,5.11,7.38C56.87,26.1,53.6,30.06,47.77,30.06Z"/><path class="cls-1" d="M60.73,4.72a2.45,2.45,0,0,1,2.52-2.45,2.54,2.54,0,0,1,2.52,2.45,2.51,2.51,0,0,1-2.52,2.56A2.39,2.39,0,0,1,60.73,4.72Zm2.52,25.2a1.79,1.79,0,0,1-1.91-1.84c0-3,0-7.09,0-10.37,0-1.62,0-3.06,0-4a1.93,1.93,0,0,1,3.85-.11v.08c0,1.47-.07,4.32-.07,7.34,0,2.48,0,5,.07,7v.07A1.82,1.82,0,0,1,63.25,29.92Z"/><path class="cls-1" d="M71.38,27.76c.08-2.52.08-7.63.08-12.46s0-9.39-.08-10.83a1.9,1.9,0,0,1,2-2,1.86,1.86,0,0,1,2,1.91v.07c0,1.77-.11,7.31-.11,12.92,0,3.82,0,7.67.11,10.41v.07a1.83,1.83,0,0,1-2,1.87,1.87,1.87,0,0,1-2-1.91Z"/><path class="cls-1" d="M87.12,29.77a2.65,2.65,0,0,1-2.45-1.91C79.3,14.29,79.3,14.26,79.3,13.68a1.83,1.83,0,0,1,1.88-1.8,1.78,1.78,0,0,1,1.76,1.3c.43,1.29,2.74,7.49,3.82,10.94.14.47.25.69.39.69s.25-.29.4-.69c1-2.95,3.06-8.64,3.85-11a1.78,1.78,0,0,1,1.73-1.26,1.91,1.91,0,0,1,2,1.77c0,1.22-5,13.28-5.37,14.21A3,3,0,0,1,87.12,29.77Z"/><path class="cls-1" d="M111.09,29.05a4.27,4.27,0,0,1-1-1.19.19.19,0,0,0-.15-.1.29.29,0,0,0-.21.1A7.67,7.67,0,0,1,104.14,30c-4,0-6.3-2.88-6.3-5.65a4.74,4.74,0,0,1,3.5-4.5,39.44,39.44,0,0,1,6.15-1.58c.36,0,.65-.47.65-1.22,0-.44-.11-2.27-2.56-2.27a4.72,4.72,0,0,0-3.52,1.51,1.75,1.75,0,0,1-1.34.65A1.69,1.69,0,0,1,99,15.3c0-1.73,3.16-3.63,6.8-3.63,4,0,6.12,1.94,6.12,6.08,0,.47,0,.9-.07,1.4a26.18,26.18,0,0,0-.18,3,6.71,6.71,0,0,0,0,.83c.33,2.88,1.66,3,2,3.2a1.53,1.53,0,0,1,.57,1.26,1.85,1.85,0,0,1-3.13,1.62Zm-3.31-7.74c-6.08.76-6.44,2.27-6.44,3.14,0,1.11,1,2.23,2.8,2.23,2.92,0,4.18-1.48,4.18-4,0-.54-.07-1.34-.51-1.34Z"/><path class="cls-1" d="M5.6,7.4l4.21,4.52C10.37,9.09,8.74,6.61,9,3.83,13.41,6.06,12.49,1,14.58,0c2,1,1.2,6,5.56,3.81.2,2.75-1.22,5.26-1,8,1.28-.1,1.56-1.06,2.23-1.51.91-.61,1.45-3.13,3.07-.44.48.81,2.06,0,3.12-.23s1.34,0,1.15,1.16c-.23,1.5-2.18,3.25.47,4.57.33.16-.4.8-.77,1.1C27,17.59,25.57,18.82,24,19.87s-2.45,2.08-1.29,4.2c-2.23-.22-4.16-.33-6.06-.6-1.25-.18-1.7.17-1.55,1.45.18,1.59.26,3.2.36,4.81,0,.64.23,1.4-.85,1.46-1.26.06-1.06-.8-1-1.54.1-1.6.19-3.21.36-4.81.12-1.11-.22-1.57-1.39-1.38s-2.19.26-3.28.33C8.06,23.87,6,25,6.93,22c.22-.74-.6-1.13-1.13-1.54-1.32-1-2.73-2-4-3.17-.81-.75-3.26-1.24-.71-3,.68-.48-.15-1.77-.45-2.61C0,9.8.29,9.11,2.38,9.79,3.82,10.26,5.29,10.5,5.6,7.4Z"/></g></g></svg>