<svg xmlns="http://www.w3.org/2000/svg" viewBox="0 0 101.97 28.56"><defs><style>.cls-1{fill:#264289;}</style></defs><g id="レイヤー_2" data-name="レイヤー 2"><g id="レイヤー_1-2" data-name="レイヤー 1"><path class="cls-1" d="M38.32,28.52c-4.39,0-6.22-2.48-6.22-3.67a1.83,1.83,0,0,1,1.83-1.73,1.75,1.75,0,0,1,1.44.76,3.55,3.55,0,0,0,2.92,1.26c1.91,0,2.66-1,2.66-1.84,0-1.15-.79-1.83-5-3.74a4.91,4.91,0,0,1-3.24-4.5c0-2.45,2-4.82,5.47-4.82s5.54,1.62,5.54,3a1.83,1.83,0,0,1-1.8,1.8,2.07,2.07,0,0,1-1.47-.72,3,3,0,0,0-2.27-.86c-1.22,0-1.91.68-1.91,1.47a1.87,1.87,0,0,0,1.19,1.59C38.4,17,40,17.72,41.1,18.3c2.48,1.33,3.52,3.17,3.52,4.93C44.62,26,41.92,28.52,38.32,28.52Z"/><path class="cls-1" d="M48.48,3.25A2.44,2.44,0,0,1,51,.81a2.54,2.54,0,0,1,2.52,2.44A2.52,2.52,0,0,1,51,5.81,2.39,2.39,0,0,1,48.48,3.25ZM51,28.45a1.79,1.79,0,0,1-1.91-1.84c0-3,0-7.09,0-10.36,0-1.62,0-3.06,0-4a1.93,1.93,0,0,1,3.85-.11v.07c0,1.48-.07,4.32-.07,7.34,0,2.49,0,5,.07,7v.07A1.82,1.82,0,0,1,51,28.45Z"/><path class="cls-1" d="M59.13,26.29c.07-2.52.07-7.63.07-12.45s0-9.4-.07-10.84a1.9,1.9,0,0,1,2-2,1.86,1.86,0,0,1,2,1.9V3c0,1.76-.11,7.3-.11,12.92,0,3.81,0,7.66.11,10.4v.07a1.83,1.83,0,0,1-2,1.87,1.86,1.86,0,0,1-2-1.9Z"/><path class="cls-1" d="M74.86,28.31a2.66,2.66,0,0,1-2.44-1.91c-5.37-13.57-5.37-13.61-5.37-14.18a1.82,1.82,0,0,1,1.87-1.8,1.78,1.78,0,0,1,1.77,1.29c.43,1.3,2.73,7.49,3.81,11,.15.46.26.68.4.68s.25-.29.4-.68c1-3,3.06-8.64,3.85-11a1.75,1.75,0,0,1,1.72-1.26,1.91,1.91,0,0,1,2,1.76c0,1.22-5,13.28-5.36,14.22A3,3,0,0,1,74.86,28.31Z"/><path class="cls-1" d="M98.84,27.59a4.24,4.24,0,0,1-1-1.19.21.21,0,0,0-.15-.11.31.31,0,0,0-.21.11,7.72,7.72,0,0,1-5.62,2.16c-4,0-6.3-2.88-6.3-5.65a4.73,4.73,0,0,1,3.49-4.5,39,39,0,0,1,6.16-1.59c.36,0,.65-.46.65-1.22,0-.43-.11-2.27-2.56-2.27a4.8,4.8,0,0,0-3.53,1.51,1.73,1.73,0,0,1-1.33.65,1.7,1.7,0,0,1-1.73-1.65c0-1.73,3.17-3.64,6.81-3.64,4,0,6.12,1.94,6.12,6.08,0,.47,0,.9-.08,1.41a28.73,28.73,0,0,0-.18,3,4.92,4.92,0,0,0,0,.82c.32,2.88,1.66,3,1.94,3.21A1.48,1.48,0,0,1,102,26a2.12,2.12,0,0,1-1.84,2.16A2.1,2.1,0,0,1,98.84,27.59Zm-3.31-7.74c-6.09.75-6.45,2.26-6.45,3.13,0,1.11,1,2.23,2.81,2.23,2.92,0,4.18-1.47,4.18-4,0-.54-.08-1.33-.51-1.33Z"/><path class="cls-1" d="M5,6.63l3.78,4.05c.5-2.54-1-4.76-.73-7.25,3.95,2,3.13-2.55,5-3.43,1.8.9,1.07,5.35,5,3.41.19,2.47-1.09,4.71-.87,7.14,1.14-.08,1.4-1,2-1.35.82-.54,1.31-2.8,2.75-.39.44.72,1.85,0,2.8-.21s1.2,0,1,1c-.21,1.34-2,2.91.41,4.09.3.15-.35.72-.69,1-1.29,1-2.56,2.14-3.93,3.08s-2.19,1.87-1.16,3.76c-2-.19-3.72-.29-5.43-.53-1.11-.16-1.52.15-1.39,1.3.17,1.43.24,2.87.33,4.3,0,.58.21,1.26-.76,1.31-1.13.06-1-.71-.91-1.37.09-1.44.17-2.88.32-4.31.11-1-.2-1.41-1.24-1.24s-2,.23-2.94.3c-1.14.07-2.95,1.05-2.15-1.6.2-.66-.54-1-1-1.38C4,17.4,2.75,16.53,1.65,15.5c-.72-.67-2.92-1.11-.64-2.72.61-.43-.14-1.59-.4-2.34C0,8.78.26,8.16,2.13,8.77,3.42,9.19,4.74,9.4,5,6.63Z"/></g></g></svg>